PathFileType	4	(X/Y/Z)	/Users/rkoike/Documents/python/sports2d/worker-zone-detection_Sports2D/worker-zone-detection_Sports2D_px_person00.trc
DataRate	CameraRate	NumFrames	NumMarkers	Units	OrigDataRate	OrigDataStartFrame	OrigNumFrames
60	60	6	22	m	60	0	4549
Frame#	Time	Hip			RHip			RKnee			RAnkle			RBigToe			RSmallToe			RHeel			LHip			LKnee			LAnkle			LBigToe			LSmallToe			LHeel			Neck			Head			Nose			RShoulder			RElbow			RWrist			LShoulder			LElbow			LWrist			
		X1	Y1	Z1	X2	Y2	Z2	X3	Y3	Z3	X4	Y4	Z4	X5	Y5	Z5	X6	Y6	Z6	X7	Y7	Z7	X8	Y8	Z8	X9	Y9	Z9	X10	Y10	Z10	X11	Y11	Z11	X12	Y12	Z12	X13	Y13	Z13	X14	Y14	Z14	X15	Y15	Z15	X16	Y16	Z16	X17	Y17	Z17	X18	Y18	Z18	X19	Y19	Z19	X20	Y20	Z20	X21	Y21	Z21	X22	Y22	Z22
0	0.0	556.9605640370572	122.07674581926891	0.0	563.138379630938	120.43837465742875	0.0	576.1700956738661	158.3044427592299	0.0	568.3545791843624	256.94654003628403	0.0	572.3369240259397	303.7305702625951	0.0	577.959063254897	294.1243388228071	0.0	557.6540233459964	282.87610270815713	0.0	614.9917908872965	120.98100847815296	0.0	576.7180415719562	169.55286193205794	0.0	567.8108198469041	262.57503419854316	0.0	588.1120622393663	299.200862384642	0.0	587.0163220434039	304.8250722758357	0.0	587.016322876043	288.50031351253915	0.0	614.8509289106013	26.324998827482798	0.0	618.9765489880124	2.0379303413047567	0.0	658.2004668445808	57.330223830348515	0.0	621.5716458743003	43.19764354127832	0.0	570.4016021734652	78.72779650866488	0.0	585.6340441142701	93.960772046613	0.0	621.7157763133714	44.29372465905937	0.0	601.9544986713739	70.76577842064992	0.0	605.2457740599243	95.60457625631346	0.0
1	0.016666666666666666	548.9791552714393	119.28125897013544	0.0	554.0434956802961	119.28958397146086	0.0	569.2243397115006	159.77590076412253	0.0	564.1689620953758	255.9272480985893	0.0	569.2349115698095	301.47451903225925	0.0	574.2913906581864	291.3496554378601	0.0	554.0483815187727	281.2302155416669	0.0	604.6438621608268	119.28333180358018	0.0	569.2234062414955	169.89543453314153	0.0	564.1738585012541	260.99125570285224	0.0	584.4131964135917	296.4105545262596	0.0	584.4152649639071	301.47032268049406	0.0	584.4152678899924	286.2899868927208	0.0	599.5750458717105	28.1966833263152	0.0	609.7080056325286	2.890160269752909	0.0	640.0561740894509	58.56015918996848	0.0	604.633006814183	43.37597133973082	0.0	559.0971087629284	78.80252908689033	0.0	574.2814264838275	93.98757848644128	0.0	609.7026572691079	43.37418050500296	0.0	589.4582093844554	68.6754901484264	0.0	589.4521043377458	93.98104876733976	0.0
2	0.03333333333333333	540.9744572921942	116.47761361143554	0.0	544.9182257158595	118.13400212749274	0.0	562.2583685346009	161.25169691428758	0.0	559.9711308670556	254.90498088747003	0.0	566.1237271821361	299.211757040603	0.0	570.6133158741394	288.567062778758	0.0	550.432218915214	279.57952587719365	0.0	594.2657398979395	117.58069909301699	0.0	561.706923755055	170.23905028127035	0.0	560.5234065489176	259.4000201726385	0.0	580.7035378513825	293.6121049675006	0.0	581.8066183894592	298.10578442833395	0.0	581.8066244742693	284.0732119773277	0.0	584.2489852642049	30.06748189059456	0.0	600.4074896342537	3.7397661375121065	0.0	621.8539960299815	59.78807368032848	0.0	587.6384500545507	43.54843829320461	0.0	547.7599708533534	78.87781752070175	0.0	562.8926286645341	94.01120860736215	0.0	597.6495966016614	42.44530083113157	0.0	576.9257905644639	66.57960960670204	0.0	573.6070048690099	92.34662953366794	0.0
3	0.05	532.9046440947286	113.65119715581619	0.0	535.7120287365408	116.96302352887876	0.0	555.2358335908883	162.7396332405566	0.0	555.7391241304032	253.8743876871837	0.0	562.9861267692722	296.9297663322284	0.0	566.9057504655963	285.76209107260865	0.0	546.7866201176508	277.9153993140614	0.0	583.8031781661036	115.86425543132479	0.0	554.1293263064302	170.5855894174698	0.0	556.8383319500813	257.7908655764742	0.0	576.9636819943205	290.7908755207709	0.0	579.1767369578257	294.71385822336345	0.0	579.176746717318	281.83839265559504	0.0	568.7905406177439	31.94484093695791	0.0	591.0245233817308	4.589358666139105	0.0	603.49691722058	61.01836499881383	0.0	570.496695043468	43.7136019036773	0.0	536.3302614090915	78.95344924391094	0.0	551.4058536649445	94.02929934984243	0.0	585.4917839691732	41.49971656885771	0.0	564.2915580878721	64.4670102740531	0.0	557.6257234774685	90.69044563492989	0.0
4	0.06666666666666667	524.7457347096937	110.79367636032802	0.0	526.3949986330304	115.77087079013641	0.0	548.1359203319785	164.24426230151045	0.0	551.4603188032594	252.8323904166171	0.0	559.8111267016776	294.62062599884126	0.0	563.1577122306809	282.92640686773774	0.0	543.1007156563023	276.2328742619091	0.0	573.225052544291	114.12897485965306	0.0	546.4680942822414	170.93620280864772	0.0	553.1059209849668	256.15706181226676	0.0	573.1824781620496	287.9384544640753	0.0	576.5177794664739	291.284430765405	0.0	576.5177917486437	279.5788639372218	0.0	553.1536517551481	33.83433827296853	0.0	581.5310947348489	5.441543528395384	0.0	584.9302221436244	62.25475826200598	0.0	553.1566264640506	43.871947607723115	0.0	524.7725835939801	79.02836501366484	0.0	539.7849111664513	94.03963019231404	0.0	573.1930233990826	40.53448503689393	0.0	551.5173997966403	62.330778819014384	0.0	541.4607720278572	89.00744283796828	0.0
5	0.08333333333333333	516.5146161658713	107.91105947764076	0.0	516.9862126255543	114.55979832125337	0.0	540.9733544554841	165.76261449499083	0.0	547.143505937162	251.78112496731248	0.0	556.603075611334	292.2876285901944	0.0	559.3767461242435	280.06571850272684	0.0	539.3820839305731	274.53541017208187	0.0	562.5532101522109	112.3785559444221	0.0	538.7390637524535	171.29029648859333	0.0	549.3339451067866	254.5017394353311	0.0	569.3677003933362	285.0607062873637	0.0	573.8352126502144	287.82455285182004	0.0	573.8352230154561	277.299267994394	0.0	537.3754163278402	35.737617385292076	0.0	571.950985230281	6.2991439610754965	0.0	566.1964347089647	63.49970153892085	0.0	535.6595705331342	44.028725587246115	0.0	513.1085524321555	79.10031279691282	0.0	528.0536437516237	94.04183788623621	0.0	560.7829554109034	39.55724068574953	0.0	538.628667369078	60.17400159855051	0.0	525.1502911198218	87.30630553494552	0.0
